<svg id="Capa_1" enable-background="new 0 0 512 512" height="512" viewBox="0 0 512 512" width="512" xmlns="http://www.w3.org/2000/svg"><g><path d="m367.351 218.942c58.227 17.522 119.912-17.058 139.12-74.72 19.746-59.276-15.302-121.436-74.72-139.12-36.338-10.815-76.491-2.257-105.194 22.472-32.801 28.26-46.414 74.397-34.086 115.968l-36.31 34.11-36.91-34.75c12.58-42.61-1.95-89.98-36.4-118.09-34.63-28.26-83.932-32.609-123.53-11.87-54.223 28.398-75.826 96.716-45.54 151.21 25.492 45.868 80.27 69.24 130.6 54.06l34.37 32.17-135.25 127.05c-17.48 16.22-27.52 38.24-28.25 62.01-.73 24 8.07 46.87 24.79 64.41l10.49 8.148 205.57-189.228 204.15 189.228 10.49-9.148c16.73-17.54 25.54-40.41 24.8-64.41-.73-23.75-10.74-45.76-28.2-61.97l-133.84-126.01 33.76-31.55c.03.01.06.02.09.03zm-278.75-29.44c-20.88-6.28-38.07-20.33-48.39-39.55-21.08-39.24-5.88-89.55 33.3-110.58 39.26-21.08 89.55-5.87 110.59 33.3 33.59 62.55-27.64 137.28-95.5 116.83zm-35.42 280.86c-5.05-9.11-7.58-19.38-7.25-29.98.47-15.5 7.02-29.86 18.51-40.52l136.76-128.47 32.44 30.37zm393.16-71.51.08.08c11.42 10.59 17.97 24.95 18.45 40.45.32 10.59-2.21 20.86-7.26 29.97l-283.14-265c12.5-8.4 23.24-19.25 31.47-31.83zm-135.23-169.47-32.56-30.65 27.47-25.81c8.12 12.48 18.73 23.39 31.39 31.88zm20.21-79.43c-21.08-39.24-5.88-89.55 33.3-110.58 39.26-21.08 89.55-5.87 110.59 33.3 33.59 62.55-27.64 137.28-95.5 116.83-20.88-6.28-38.07-20.33-48.39-39.55z"/><path d="m454.12 103.88c-3.37-28.03-28.92-48.11-56.96-44.74-27.2 3.26-47.45 28.28-44.87 55.59 2.66 28.28 28.77 49.5 57.07 46.1 14.02-1.68 26.41-8.83 34.91-20.16 7.84-10.5 11.41-23.78 9.85-36.79zm-64.34 22.48c-14.98-12.35-5.95-37.59 13.5-37.59 10.58 0 19.76 7.93 21.05 18.68 2.23 18.62-20.12 30.8-34.55 18.91z"/><path d="m163 103.88c-3.264-27.23-28.493-47.517-55.785-44.853-27.446 2.678-48.633 28.199-46.035 55.703 2.636 28.02 29.106 49.456 57.07 46.1 27.451-3.295 48.042-29.501 44.75-56.95zm-64.33 22.48c-14.99-12.35-5.95-37.59 13.49-37.59 10.59 0 19.77 7.93 21.06 18.68 2.23 18.62-20.12 30.8-34.55 18.91z"/><path d="m454.12 103.88c-3.37-28.03-28.92-48.11-56.96-44.74-27.2 3.26-47.45 28.28-44.87 55.59 2.66 28.28 28.77 49.5 57.07 46.1 14.02-1.68 26.41-8.83 34.91-20.16 7.84-10.5 11.41-23.78 9.85-36.79zm-64.34 22.48c-14.98-12.35-5.95-37.59 13.5-37.59 10.58 0 19.76 7.93 21.05 18.68 2.23 18.62-20.12 30.8-34.55 18.91z"/><path d="m454.12 103.88c-3.37-28.03-28.92-48.11-56.96-44.74-27.2 3.26-47.45 28.28-44.87 55.59 2.66 28.28 28.77 49.5 57.07 46.1 14.02-1.68 26.41-8.83 34.91-20.16 7.84-10.5 11.41-23.78 9.85-36.79zm-64.34 22.48c-14.98-12.35-5.95-37.59 13.5-37.59 10.58 0 19.76 7.93 21.05 18.68 2.23 18.62-20.12 30.8-34.55 18.91z"/></g></svg>